<?xml version="1.0" encoding="utf-8"?>
<!-- Generator: Adobe Illustrator 23.0.3, SVG Export Plug-In . SVG Version: 6.00 Build 0)  -->
<svg version="1.1" id="Layer_1" xmlns="http://www.w3.org/2000/svg" xmlns:xlink="http://www.w3.org/1999/xlink" x="0px" y="0px"
	 viewBox="0 0 100 125" style="enable-background:new 0 0 100 125;" xml:space="preserve">
<path d="M79.8,65.3c-0.9-0.6-2.2-0.3-2.7,0.7c-5.7,9.4-15.6,15-26.6,15c-14,0-25.8-9.3-29.7-22h6.7c0.8,0,1.4-0.4,1.8-1.1
	c0.3-0.7,0.3-1.5-0.2-2.1l-10-14c-0.4-0.5-1-0.8-1.6-0.8s-1.2,0.3-1.6,0.8l-10,14c-0.4,0.6-0.5,1.4-0.2,2.1C6,58.6,6.7,59,7.5,59
	h9.2c4,15,17.6,26,33.8,26c12.4,0,23.6-6.3,30-17C81.1,67.1,80.8,65.9,79.8,65.3z M11.4,55l6.1-8.6l6.1,8.6H11.4z M94.3,42.1
	c-0.3-0.7-1-1.1-1.8-1.1h-8.2c-4-15-17.6-26-33.8-26c-12.4,0-23.6,6.3-30,17c-0.6,0.9-0.3,2.2,0.7,2.7c0.9,0.6,2.2,0.3,2.7-0.7
	c5.7-9.4,15.6-15,26.6-15c14,0,25.8,9.3,29.7,22h-7.7c-0.8,0-1.4,0.4-1.8,1.1c-0.3,0.7-0.3,1.5,0.2,2.1l10,14c0.4,0.5,1,0.8,1.6,0.8
	s1.2-0.3,1.6-0.8l10-14C94.6,43.5,94.6,42.8,94.3,42.1z M82.5,53.6L76.4,45h12.2L82.5,53.6z"/>
</svg>
